<svg xmlns="http://www.w3.org/2000/svg" width="512" height="300" viewBox="0 0 512 300"><defs><linearGradient id="g" x1="0" y1="0" x2="1" y2="1"><stop stop-color="#ff5ce1"/><stop offset="1" stop-color="#74145f"/></linearGradient><filter id="gl"><feGaussianBlur stdDeviation="7"/></filter></defs><ellipse cx="256" cy="255" rx="105" ry="20" fill="#ff5ce1" opacity=".18" filter="url(#gl)"/><path d="M256 16 L276 70 L352 102 L316 150 L414 206 L296 190 L256 272 L216 190 L98 206 L196 150 L160 102 L236 70 Z" fill="url(#g)" stroke="#ff5ce1" stroke-width="5" stroke-linejoin="round"/><path d="M256 35 L279 112 L256 178 L233 112 Z" fill="#071326" stroke="#ffe1f8" stroke-width="4"/><path d="M256 55 L268 111 L256 145 L244 111 Z" fill="#ffe1f8" opacity=".95"/><circle cx="256" cy="104" r="6" fill="#ff5ce1"/><path d="M112 137 L206 143 M400 137 L306 143" stroke="#ffe1f8" stroke-width="5" stroke-linecap="round"/><path d="M220 190 L232 246 M292 190 L280 246" stroke="#ff5ce1" stroke-width="8" stroke-linecap="round"/></svg>