<svg xmlns="http://www.w3.org/2000/svg" viewBox="0 0 800 600"><defs><filter id="genemy5" x="-80%" y="-80%" width="260%" height="260%"><feGaussianBlur stdDeviation="10" result="b"/><feMerge><feMergeNode in="b"/><feMergeNode in="SourceGraphic"/></feMerge></filter><linearGradient id="genemy5m" x1="0" y1="0" x2="1" y2="1"><stop offset="0" stop-color="#c7c9d5"/><stop offset=".42" stop-color="#344150"/><stop offset=".62" stop-color="#101821"/><stop offset="1" stop-color="#c7c9d5"/></linearGradient><linearGradient id="genemy5a" x1="0" y1="0" x2="0" y2="1"><stop stop-color="#42166f"/><stop offset="1" stop-color="#0b1119"/></linearGradient><radialGradient id="genemy5c"><stop stop-color="#ffffff"/><stop offset=".22" stop-color="#d16cff"/><stop offset=".7" stop-color="#d16cff" stop-opacity=".55"/><stop offset="1" stop-color="#d16cff" stop-opacity="0"/></radialGradient></defs><g><path d="M400 65 L485 175 L710 245 L555 315 L485 455 L400 505 L315 455 L245 315 L90 245 L315 175 Z" fill="url(#genemy5m)" stroke="#42166f" stroke-width="9"/><path d="M400 105 L445 200 L400 330 L355 200 Z" fill="url(#genemy5a)" stroke="#42166f" stroke-width="7"/><ellipse cx="400" cy="225" rx="48" ry="70" fill="#090e15" stroke="#d16cff" stroke-width="7"/><circle cx="400" cy="220" r="23" fill="#d16cff" filter="url(#genemy5)"/><path d="M175 245 L85 345 M625 245 L715 345" stroke="#42166f" stroke-width="20" stroke-linecap="round"/><path d="M220 330 L155 445 M580 330 L645 445" stroke="#42166f" stroke-width="14"/><path d="M330 435 L310 520 M470 435 L490 520" stroke="#d16cff" stroke-width="22" stroke-linecap="round" opacity=".85" filter="url(#genemy5)"/><g opacity=".75" fill="none" stroke="#ffffff" stroke-opacity=".18" stroke-width="3"><path d="M300 170 L400 130 L500 170"/><path d="M270 300 L400 335 L530 300"/><path d="M330 365 L400 395 L470 365"/></g></g></svg>