<svg xmlns="http://www.w3.org/2000/svg" width="512" height="300" viewBox="0 0 512 300"><defs><linearGradient id="g" x1="0" y1="0" x2="1" y2="1"><stop stop-color="#b36cff"/><stop offset="1" stop-color="#3a176f"/></linearGradient><filter id="gl"><feGaussianBlur stdDeviation="7"/></filter></defs><ellipse cx="256" cy="255" rx="105" ry="20" fill="#b36cff" opacity=".18" filter="url(#gl)"/><path d="M256 18 L282 76 L398 112 L318 158 L360 224 L282 194 L256 270 L230 194 L152 224 L194 158 L114 112 L230 76 Z" fill="url(#g)" stroke="#b36cff" stroke-width="5" stroke-linejoin="round"/><path d="M256 35 L279 112 L256 178 L233 112 Z" fill="#071326" stroke="#ffd6ff" stroke-width="4"/><path d="M256 55 L268 111 L256 145 L244 111 Z" fill="#ffd6ff" opacity=".95"/><circle cx="256" cy="104" r="6" fill="#b36cff"/><path d="M112 137 L206 143 M400 137 L306 143" stroke="#ffd6ff" stroke-width="5" stroke-linecap="round"/><path d="M220 190 L232 246 M292 190 L280 246" stroke="#b36cff" stroke-width="8" stroke-linecap="round"/></svg>