<svg xmlns="http://www.w3.org/2000/svg" width="700" height="420" viewBox="0 0 700 420"><defs><linearGradient id="g" x1="0" y1="0" x2="1" y2="1"><stop stop-color="#43dcff"/><stop offset="1" stop-color="#073f63"/></linearGradient><filter id="gl"><feGaussianBlur stdDeviation="14"/></filter></defs><ellipse cx="350" cy="342" rx="220" ry="35" fill="#43dcff" opacity=".2" filter="url(#gl)"/><path d="M350 12 L420 82 L666 138 L452 194 L410 340 L350 300 L290 340 L248 194 L34 138 L280 82 Z" fill="url(#g)" stroke="#43dcff" stroke-width="7" stroke-linejoin="round"/><path d="M350 36 L390 132 L350 230 L310 132 Z" fill="#071326" stroke="#ffffff" stroke-width="6"/><path d="M350 60 L370 130 L350 190 L330 130 Z" fill="#ffffff"/><circle cx="350" cy="126" r="10" fill="#43dcff"/><path d="M112 128 L270 160 M588 128 L430 160" stroke="#ffffff" stroke-width="9" stroke-linecap="round"/><path d="M250 230 L276 324 M450 230 L424 324" stroke="#43dcff" stroke-width="12" stroke-linecap="round"/><circle cx="180" cy="160" r="12" fill="#ffffff"/><circle cx="520" cy="160" r="12" fill="#ffffff"/></svg>