<svg xmlns="http://www.w3.org/2000/svg" viewBox="0 0 800 600"><defs><filter id="gboss4" x="-80%" y="-80%" width="260%" height="260%"><feGaussianBlur stdDeviation="10" result="b"/><feMerge><feMergeNode in="b"/><feMergeNode in="SourceGraphic"/></feMerge></filter><linearGradient id="gboss4m" x1="0" y1="0" x2="1" y2="1"><stop offset="0" stop-color="#d8e4f2"/><stop offset=".42" stop-color="#344150"/><stop offset=".62" stop-color="#101821"/><stop offset="1" stop-color="#d8e4f2"/></linearGradient><linearGradient id="gboss4a" x1="0" y1="0" x2="0" y2="1"><stop stop-color="#123c79"/><stop offset="1" stop-color="#0b1119"/></linearGradient><radialGradient id="gboss4c"><stop stop-color="#ffffff"/><stop offset=".22" stop-color="#3ec8ff"/><stop offset=".7" stop-color="#3ec8ff" stop-opacity=".55"/><stop offset="1" stop-color="#3ec8ff" stop-opacity="0"/></radialGradient></defs><g><path d="M400 25 L520 150 L690 235 L610 340 L540 455 L400 535 L260 455 L190 340 L110 235 L280 150 Z" fill="url(#gboss4m)" stroke="#d8e4f2" stroke-width="13"/><path d="M400 65 L470 175 L400 360 L330 175 Z" fill="url(#gboss4a)" stroke="#123c79" stroke-width="10"/><circle cx="400" cy="205" r="72" fill="url(#gboss4c)" opacity=".95"/><circle cx="400" cy="205" r="30" fill="#fff"/><path d="M245 315 L155 445 M555 315 L645 445" stroke="#123c79" stroke-width="25" stroke-linecap="round"/><path d="M300 430 L255 535 M500 430 L545 535" stroke="#3ec8ff" stroke-width="35" stroke-linecap="round" opacity=".8" filter="url(#gboss4)"/><path d="M275 150 L225 80 M525 150 L575 80" stroke="#123c79" stroke-width="18" stroke-linecap="round"/><rect x="255" y="360" width="28" height="78" rx="10" fill="#0b1118" stroke="#123c79" stroke-width="4"/><rect x="303" y="360" width="28" height="78" rx="10" fill="#0b1118" stroke="#123c79" stroke-width="4"/><rect x="351" y="360" width="28" height="78" rx="10" fill="#0b1118" stroke="#123c79" stroke-width="4"/><rect x="399" y="360" width="28" height="78" rx="10" fill="#0b1118" stroke="#123c79" stroke-width="4"/><g opacity=".75" fill="none" stroke="#ffffff" stroke-opacity=".18" stroke-width="3"><path d="M300 170 L400 130 L500 170"/><path d="M270 300 L400 335 L530 300"/><path d="M330 365 L400 395 L470 365"/></g></g></svg>