<svg xmlns="http://www.w3.org/2000/svg" width="512" height="320" viewBox="0 0 512 320"><defs><linearGradient id="h" x1="0" y1="0" x2="0" y2="1"><stop stop-color="#b7a1ff"/><stop offset="1" stop-color="#4b2b99"/></linearGradient><filter id="g"><feGaussianBlur stdDeviation="8"/></filter></defs><ellipse cx="256" cy="278" rx="55" ry="22" fill="#b7a1ff" opacity=".22" filter="url(#g)"/><g fill="url(#h)" stroke="#b7a1ff" stroke-width="5" stroke-linejoin="round"><path d="M220 138 L54 190 L178 220 L236 170 Z"/><path d="M220 138 L54 190 L178 220 L236 170 Z" transform="translate(512 0) scale(-1 1)"/><path d="M256 20 L304 106 L282 146 L350 214 L288 198 L256 286 L224 198 L162 214 L230 146 L208 106 Z"/></g><path d="M256 55 L276 126 L256 176 L236 126 Z" fill="#dff9ff" stroke="#b7a1ff" stroke-width="4"/><rect x="246" y="88" width="20" height="58" rx="8" fill="#f7ffff"/><path d="M226 194 L244 270 L256 238 L268 270 L286 194" fill="none" stroke="#b7a1ff" stroke-width="9" stroke-linecap="round"/><circle cx="216" cy="155" r="7" fill="#b7a1ff"/><circle cx="296" cy="155" r="7" fill="#b7a1ff"/></svg>