<svg xmlns="http://www.w3.org/2000/svg" width="960" height="540"><defs><linearGradient id="b" x1="0" y1="0" x2="1" y2="1"><stop stop-color="#100414"/><stop offset=".5" stop-color="#3b0a3f"/><stop offset="1" stop-color="#701a75"/></linearGradient><radialGradient id="n"><stop stop-color="#f472b6" stop-opacity=".34"/><stop offset="1" stop-color="#f472b6" stop-opacity="0"/></radialGradient><filter id="bl"><feGaussianBlur stdDeviation="34"/></filter></defs><rect width="960" height="540" fill="url(#b)"/><ellipse cx="530" cy="255" rx="280" ry="130" fill="url(#n)" filter="url(#bl)"/><ellipse cx="605" cy="290" rx="320" ry="140" fill="url(#n)" filter="url(#bl)"/><path d="M-40 350 C220 130, 410 455, 1010 310" fill="none" stroke="#f472b6" stroke-opacity=".12" stroke-width="4"/><circle cx="355" cy="235" r="1.5" fill="#e8f7ff" opacity="0.35"/><circle cx="492" cy="318" r="0.7" fill="#e8f7ff" opacity="0.44999999999999996"/><circle cx="629" cy="401" r="0.7" fill="#e8f7ff" opacity="0.55"/><circle cx="766" cy="484" r="0.7" fill="#e8f7ff" opacity="0.65"/><circle cx="903" cy="27" r="0.7" fill="#e8f7ff" opacity="0.75"/><circle cx="80" cy="110" r="1.5" fill="#e8f7ff" opacity="0.35"/><circle cx="217" cy="193" r="0.7" fill="#e8f7ff" opacity="0.44999999999999996"/><circle cx="354" cy="276" r="0.7" fill="#e8f7ff" opacity="0.55"/><circle cx="491" cy="359" r="0.7" fill="#e8f7ff" opacity="0.65"/><circle cx="628" cy="442" r="0.7" fill="#e8f7ff" opacity="0.75"/><circle cx="765" cy="525" r="1.5" fill="#e8f7ff" opacity="0.35"/><circle cx="902" cy="68" r="0.7" fill="#e8f7ff" opacity="0.44999999999999996"/><circle cx="79" cy="151" r="0.7" fill="#e8f7ff" opacity="0.55"/><circle cx="216" cy="234" r="0.7" fill="#e8f7ff" opacity="0.65"/><circle cx="353" cy="317" r="0.7" fill="#e8f7ff" opacity="0.75"/><circle cx="490" cy="400" r="1.5" fill="#e8f7ff" opacity="0.35"/><circle cx="627" cy="483" r="0.7" fill="#e8f7ff" opacity="0.44999999999999996"/><circle cx="764" cy="26" r="0.7" fill="#e8f7ff" opacity="0.55"/><circle cx="901" cy="109" r="0.7" fill="#e8f7ff" opacity="0.65"/><circle cx="78" cy="192" r="0.7" fill="#e8f7ff" opacity="0.75"/><circle cx="215" cy="275" r="1.5" fill="#e8f7ff" opacity="0.35"/><circle cx="352" cy="358" r="0.7" fill="#e8f7ff" opacity="0.44999999999999996"/><circle cx="489" cy="441" r="0.7" fill="#e8f7ff" opacity="0.55"/><circle cx="626" cy="524" r="0.7" fill="#e8f7ff" opacity="0.65"/><circle cx="763" cy="67" r="0.7" fill="#e8f7ff" opacity="0.75"/><circle cx="900" cy="150" r="1.5" fill="#e8f7ff" opacity="0.35"/><circle cx="77" cy="233" r="0.7" fill="#e8f7ff" opacity="0.44999999999999996"/><circle cx="214" cy="316" r="0.7" fill="#e8f7ff" opacity="0.55"/><circle cx="351" cy="399" r="0.7" fill="#e8f7ff" opacity="0.65"/><circle cx="488" cy="482" r="0.7" fill="#e8f7ff" opacity="0.75"/><circle cx="625" cy="25" r="1.5" fill="#e8f7ff" opacity="0.35"/><circle cx="762" cy="108" r="0.7" fill="#e8f7ff" opacity="0.44999999999999996"/><circle cx="899" cy="191" r="0.7" fill="#e8f7ff" opacity="0.55"/><circle cx="76" cy="274" r="0.7" fill="#e8f7ff" opacity="0.65"/><circle cx="213" cy="357" r="0.7" fill="#e8f7ff" opacity="0.75"/><circle cx="350" cy="440" r="1.5" fill="#e8f7ff" opacity="0.35"/><circle cx="487" cy="523" r="0.7" fill="#e8f7ff" opacity="0.44999999999999996"/><circle cx="624" cy="66" r="0.7" fill="#e8f7ff" opacity="0.55"/><circle cx="761" cy="149" r="0.7" fill="#e8f7ff" opacity="0.65"/><circle cx="898" cy="232" r="0.7" fill="#e8f7ff" opacity="0.75"/><circle cx="75" cy="315" r="1.5" fill="#e8f7ff" opacity="0.35"/><circle cx="212" cy="398" r="0.7" fill="#e8f7ff" opacity="0.44999999999999996"/><circle cx="349" cy="481" r="0.7" fill="#e8f7ff" opacity="0.55"/><circle cx="486" cy="24" r="0.7" fill="#e8f7ff" opacity="0.65"/><circle cx="623" cy="107" r="0.7" fill="#e8f7ff" opacity="0.75"/><circle cx="760" cy="190" r="1.5" fill="#e8f7ff" opacity="0.35"/><circle cx="897" cy="273" r="0.7" fill="#e8f7ff" opacity="0.44999999999999996"/><circle cx="74" cy="356" r="0.7" fill="#e8f7ff" opacity="0.55"/><circle cx="211" cy="439" r="0.7" fill="#e8f7ff" opacity="0.65"/><circle cx="348" cy="522" r="0.7" fill="#e8f7ff" opacity="0.75"/><circle cx="485" cy="65" r="1.5" fill="#e8f7ff" opacity="0.35"/><circle cx="622" cy="148" r="0.7" fill="#e8f7ff" opacity="0.44999999999999996"/><circle cx="759" cy="231" r="0.7" fill="#e8f7ff" opacity="0.55"/><circle cx="896" cy="314" r="0.7" fill="#e8f7ff" opacity="0.65"/><circle cx="73" cy="397" r="0.7" fill="#e8f7ff" opacity="0.75"/><circle cx="210" cy="480" r="1.5" fill="#e8f7ff" opacity="0.35"/><circle cx="347" cy="23" r="0.7" fill="#e8f7ff" opacity="0.44999999999999996"/><circle cx="484" cy="106" r="0.7" fill="#e8f7ff" opacity="0.55"/><circle cx="621" cy="189" r="0.7" fill="#e8f7ff" opacity="0.65"/><circle cx="758" cy="272" r="0.7" fill="#e8f7ff" opacity="0.75"/><circle cx="895" cy="355" r="1.5" fill="#e8f7ff" opacity="0.35"/><circle cx="72" cy="438" r="0.7" fill="#e8f7ff" opacity="0.44999999999999996"/><circle cx="209" cy="521" r="0.7" fill="#e8f7ff" opacity="0.55"/><circle cx="346" cy="64" r="0.7" fill="#e8f7ff" opacity="0.65"/><circle cx="483" cy="147" r="0.7" fill="#e8f7ff" opacity="0.75"/><circle cx="620" cy="230" r="1.5" fill="#e8f7ff" opacity="0.35"/><circle cx="757" cy="313" r="0.7" fill="#e8f7ff" opacity="0.44999999999999996"/><circle cx="894" cy="396" r="0.7" fill="#e8f7ff" opacity="0.55"/><circle cx="71" cy="479" r="0.7" fill="#e8f7ff" opacity="0.65"/><circle cx="208" cy="22" r="0.7" fill="#e8f7ff" opacity="0.75"/><circle cx="345" cy="105" r="1.5" fill="#e8f7ff" opacity="0.35"/><circle cx="482" cy="188" r="0.7" fill="#e8f7ff" opacity="0.44999999999999996"/><circle cx="619" cy="271" r="0.7" fill="#e8f7ff" opacity="0.55"/><circle cx="756" cy="354" r="0.7" fill="#e8f7ff" opacity="0.65"/><circle cx="893" cy="437" r="0.7" fill="#e8f7ff" opacity="0.75"/><circle cx="70" cy="520" r="1.5" fill="#e8f7ff" opacity="0.35"/><circle cx="207" cy="63" r="0.7" fill="#e8f7ff" opacity="0.44999999999999996"/><circle cx="344" cy="146" r="0.7" fill="#e8f7ff" opacity="0.55"/><circle cx="481" cy="229" r="0.7" fill="#e8f7ff" opacity="0.65"/><circle cx="618" cy="312" r="0.7" fill="#e8f7ff" opacity="0.75"/><circle cx="755" cy="395" r="1.5" fill="#e8f7ff" opacity="0.35"/><circle cx="892" cy="478" r="0.7" fill="#e8f7ff" opacity="0.44999999999999996"/><circle cx="69" cy="21" r="0.7" fill="#e8f7ff" opacity="0.55"/><circle cx="206" cy="104" r="0.7" fill="#e8f7ff" opacity="0.65"/><circle cx="343" cy="187" r="0.7" fill="#e8f7ff" opacity="0.75"/><circle cx="830" cy="430" r="90" fill="#24081f" stroke="#f472b6" stroke-opacity=".32" stroke-width="3"/><path d="M755 450 Q830 395 905 450" fill="none" stroke="#f472b6" stroke-opacity=".25" stroke-width="10"/><circle cx="475" cy="88" r="2.5" fill="#fff"/><circle cx="570" cy="420" r="2.2" fill="#fff"/><circle cx="300" cy="280" r="2" fill="#fff"/><rect width="960" height="540" fill="#000" opacity=".08"/></svg>