<svg xmlns="http://www.w3.org/2000/svg" viewBox="0 0 960 540"><defs><linearGradient id="b" x2="1" y2="1"><stop stop-color="#180a3c"/><stop offset=".48" stop-color="#071a45"/><stop offset="1" stop-color="#010713"/></linearGradient><radialGradient id="n"><stop stop-color="#d84cff" stop-opacity=".35"/><stop offset="1" stop-color="#d84cff" stop-opacity="0"/></radialGradient></defs><rect width="960" height="540" fill="url(#b)"/><circle cx="500" cy="180" r="260" fill="url(#n)"/><circle cx="230" cy="120" r="115" fill="#4b2b9d" opacity=".18"/><g fill="#fff"><circle cx="41" cy="19" r="0.6"/><circle cx="178" cy="102" r="1.1"/><circle cx="315" cy="185" r="1.6"/><circle cx="452" cy="268" r="2.1"/><circle cx="589" cy="351" r="0.6"/><circle cx="726" cy="434" r="1.1"/><circle cx="863" cy="517" r="1.6"/><circle cx="40" cy="60" r="2.1"/><circle cx="177" cy="143" r="0.6"/><circle cx="314" cy="226" r="1.1"/><circle cx="451" cy="309" r="1.6"/><circle cx="588" cy="392" r="2.1"/><circle cx="725" cy="475" r="0.6"/><circle cx="862" cy="18" r="1.1"/><circle cx="39" cy="101" r="1.6"/><circle cx="176" cy="184" r="2.1"/><circle cx="313" cy="267" r="0.6"/><circle cx="450" cy="350" r="1.1"/><circle cx="587" cy="433" r="1.6"/><circle cx="724" cy="516" r="2.1"/><circle cx="861" cy="59" r="0.6"/><circle cx="38" cy="142" r="1.1"/><circle cx="175" cy="225" r="1.6"/><circle cx="312" cy="308" r="2.1"/><circle cx="449" cy="391" r="0.6"/><circle cx="586" cy="474" r="1.1"/><circle cx="723" cy="17" r="1.6"/><circle cx="860" cy="100" r="2.1"/><circle cx="37" cy="183" r="0.6"/><circle cx="174" cy="266" r="1.1"/><circle cx="311" cy="349" r="1.6"/><circle cx="448" cy="432" r="2.1"/><circle cx="585" cy="515" r="0.6"/><circle cx="722" cy="58" r="1.1"/><circle cx="859" cy="141" r="1.6"/><circle cx="36" cy="224" r="2.1"/><circle cx="173" cy="307" r="0.6"/><circle cx="310" cy="390" r="1.1"/><circle cx="447" cy="473" r="1.6"/><circle cx="584" cy="16" r="2.1"/><circle cx="721" cy="99" r="0.6"/><circle cx="858" cy="182" r="1.1"/><circle cx="35" cy="265" r="1.6"/><circle cx="172" cy="348" r="2.1"/><circle cx="309" cy="431" r="0.6"/><circle cx="446" cy="514" r="1.1"/><circle cx="583" cy="57" r="1.6"/><circle cx="720" cy="140" r="2.1"/><circle cx="857" cy="223" r="0.6"/><circle cx="34" cy="306" r="1.1"/><circle cx="171" cy="389" r="1.6"/><circle cx="308" cy="472" r="2.1"/><circle cx="445" cy="15" r="0.6"/><circle cx="582" cy="98" r="1.1"/><circle cx="719" cy="181" r="1.6"/><circle cx="856" cy="264" r="2.1"/><circle cx="33" cy="347" r="0.6"/><circle cx="170" cy="430" r="1.1"/><circle cx="307" cy="513" r="1.6"/><circle cx="444" cy="56" r="2.1"/><circle cx="581" cy="139" r="0.6"/><circle cx="718" cy="222" r="1.1"/><circle cx="855" cy="305" r="1.6"/><circle cx="32" cy="388" r="2.1"/><circle cx="169" cy="471" r="0.6"/><circle cx="306" cy="14" r="1.1"/><circle cx="443" cy="97" r="1.6"/><circle cx="580" cy="180" r="2.1"/><circle cx="717" cy="263" r="0.6"/><circle cx="854" cy="346" r="1.1"/></g><circle cx="780" cy="400" r="92" fill="#39276f"/><circle cx="758" cy="378" r="70" fill="#7d5cd0" opacity=".28"/></svg>